<?xml version="1.0" standalone="no"?>
<!DOCTYPE svg PUBLIC "-//W3C//DTD SVG 1.1//EN" "http://www.w3.org/Graphics/SVG/1.1/DTD/svg11.dtd" >
<!--
2013-9-30: Created.
-->
<svg>
<metadata>
Created by iconfont
</metadata>
<defs>

<font id="iconfont" horiz-adv-x="1024" >
  <font-face
    font-family="iconfont"
    font-weight="500"
    font-stretch="normal"
    units-per-em="1024"
    ascent="896"
    descent="-128"
  />
    <missing-glyph />
    
    <glyph glyph-name="x" unicode="x" horiz-adv-x="1001"
d="M281 543q-27 -1 -53 -1h-83q-18 0 -36.5 -6t-32.5 -18.5t-23 -32t-9 -45.5v-76h912v41q0 16 -0.5 30t-0.5 18q0 13 -5 29t-17 29.5t-31.5 22.5t-49.5 9h-133v-97h-438v97zM955 310v-52q0 -23 0.5 -52t0.5 -58t-10.5 -47.5t-26 -30t-33 -16t-31.5 -4.5q-14 -1 -29.5 -0.5
t-29.5 0.5h-32l-45 128h-439l-44 -128h-29h-34q-20 0 -45 1q-25 0 -41 9.5t-25.5 23t-13.5 29.5t-4 30v167h911zM163 247q-12 0 -21 -8.5t-9 -21.5t9 -21.5t21 -8.5q13 0 22 8.5t9 21.5t-9 21.5t-22 8.5zM316 123q-8 -26 -14 -48q-5 -19 -10.5 -37t-7.5 -25t-3 -15t1 -14.5
t9.5 -10.5t21.5 -4h37h67h81h80h64h36q23 0 34 12t2 38q-5 13 -9.5 30.5t-9.5 34.5q-5 19 -11 39h-368zM336 498v228q0 11 2.5 23t10 21.5t20.5 15.5t34 6h188q31 0 51.5 -14.5t20.5 -52.5v-227h-327z" />
    

    
    <glyph glyph-name="close" unicode="&#59031;" d="M512 409.6l-486.4 486.4-25.6-25.6 486.4-486.4-486.4-486.4 25.6-25.6 486.4 486.4 486.4-486.4 25.6 25.6-486.4 486.4 486.4 486.4-25.6 25.6zM512 409.6l-486.4 486.4-25.6-25.6 486.4-486.4-486.4-486.4 25.6-25.6 486.4 486.4 486.4-486.4 25.6 25.6-486.4 486.4 486.4 486.4-25.6 25.6z"  horiz-adv-x="1024" />

    
    <glyph glyph-name="back" unicode="&#59032;" d="M199.111111 384l523.377778-512 62.577778 56.888889-466.488889 455.111111 466.488889 455.111111-62.577778 56.888889z"  horiz-adv-x="1024" />

    
    <glyph glyph-name="nonetwork" unicode="&#59033;" d="M1268.48 171.52c-5.12 0-10.24 2.56-14.08 6.4-3.84 3.84-5.12 8.96-5.12 14.08 0 5.12 2.56 10.24 5.12 14.08 3.84 3.84 8.96 6.4 14.08 6.4 5.12 0 10.24-2.56 14.08-6.4 3.84-3.84 5.12-8.96 5.12-14.08 0-5.12-2.56-10.24-5.12-14.08s-8.96-6.4-14.08-6.4z m0 25.6c-3.84 0-6.4-2.56-6.4-6.4s2.56-6.4 6.4-6.4 6.4 2.56 6.4 6.4-2.56 6.4-6.4 6.4z m-44.8 495.36c-5.12 0-10.24 2.56-14.08 6.4-3.84 3.84-5.12 8.96-5.12 14.08 0 5.12 2.56 10.24 5.12 14.08s8.96 6.4 14.08 6.4c5.12 0 10.24-2.56 14.08-6.4 3.84-3.84 5.12-8.96 5.12-14.08 0-5.12-2.56-10.24-5.12-14.08-3.84-3.84-8.96-6.4-14.08-6.4z m0 25.6c-3.84 0-6.4-2.56-6.4-6.4s2.56-6.4 6.4-6.4 6.4 2.56 6.4 6.4-2.56 6.4-6.4 6.4zM904.96 756.48c0-1.28 1.28-2.56 2.56-3.84 0-2.56 1.28-3.84 3.84-3.84 1.28 0 3.84 1.28 3.84 2.56s0 3.84-1.28 5.12c0 1.28-1.28 2.56-2.56 3.84-1.28 1.28-2.56 1.28-3.84 0-1.28-1.28-2.56-2.56-2.56-3.84z m-523.52-519.68c0-1.28 1.28-2.56 2.56-3.84s2.56-1.28 3.84 0c1.28 1.28 2.56 2.56 2.56 3.84 0 1.28-1.28 2.56-2.56 3.84-1.28 1.28-2.56 1.28-3.84 0-2.56-1.28-2.56-2.56-2.56-3.84z m870.4 115.2c0-1.28 1.28-2.56 2.56-3.84 1.28-1.28 2.56-1.28 3.84 0s2.56 2.56 2.56 3.84c0 1.28-1.28 2.56-2.56 3.84-1.28 1.28-2.56 1.28-3.84 0-2.56 0-2.56-1.28-2.56-3.84z m-879.36-279.04c0-1.28 1.28-2.56 2.56-3.84 1.28-1.28 2.56-1.28 3.84 0 1.28 1.28 2.56 2.56 2.56 3.84 0 1.28-1.28 2.56-2.56 3.84-1.28 1.28-2.56 1.28-3.84 0-2.56-1.28-3.84-2.56-2.56-3.84zM576 666.88c-12.8 0-23.04 10.24-23.04 23.04s10.24 23.04 23.04 23.04 23.04-10.24 23.04-23.04-10.24-23.04-23.04-23.04z m0 32c-5.12 0-8.96-3.84-8.96-8.96 0-5.12 3.84-8.96 8.96-8.96 5.12 0 8.96 3.84 8.96 8.96 1.28 5.12-3.84 8.96-8.96 8.96z m-279.04-405.76c-6.4 0-11.52 2.56-15.36 6.4-3.84 3.84-6.4 10.24-6.4 16.64s2.56 11.52 6.4 16.64c3.84 3.84 10.24 6.4 15.36 6.4 6.4 0 11.52-2.56 15.36-6.4s6.4-10.24 6.4-16.64-2.56-11.52-6.4-16.64c-3.84-3.84-8.96-6.4-15.36-6.4z m0 33.28c-5.12 0-8.96-3.84-8.96-8.96 0-5.12 3.84-8.96 8.96-8.96 5.12 0 8.96 3.84 8.96 8.96 0 3.84-3.84 8.96-8.96 8.96zM389.12 343.04h-26.88c-3.84 0-6.4 2.56-6.4 6.4s2.56 6.4 6.4 6.4h26.88c3.84 0 6.4-2.56 6.4-6.4s-2.56-6.4-6.4-6.4zM376.32 328.96c-3.84 0-6.4 2.56-6.4 6.4v26.88c0 3.84 2.56 6.4 6.4 6.4s6.4-2.56 6.4-6.4v-26.88c0-3.84-3.84-6.4-6.4-6.4zM463.36 695.04c0-2.56 1.28-3.84 2.56-5.12s3.84-1.28 6.4 0c1.28 1.28 2.56 2.56 2.56 5.12s-1.28 3.84-2.56 5.12c-1.28 1.28-3.84 1.28-6.4 0-1.28 0-2.56-2.56-2.56-5.12z m640-93.44c0-2.56 1.28-3.84 2.56-5.12 1.28-1.28 3.84-1.28 6.4 0 1.28 1.28 2.56 2.56 2.56 5.12 0 3.84-2.56 6.4-6.4 6.4-2.56-1.28-5.12-3.84-5.12-6.4zM455.68 629.76h-6.4v6.4c0 3.84-2.56 6.4-6.4 6.4s-6.4-2.56-6.4-6.4v-6.4h-6.4c-3.84 0-6.4-2.56-6.4-6.4s2.56-6.4 6.4-6.4h6.4v-6.4c0-3.84 2.56-6.4 6.4-6.4s6.4 2.56 6.4 6.4v6.4h6.4c3.84 0 6.4 2.56 6.4 6.4 0 2.56-2.56 6.4-6.4 6.4z m761.6-15.36h-6.4v6.4c0 3.84-2.56 6.4-6.4 6.4s-6.4-2.56-6.4-6.4v-6.4h-6.4c-3.84 0-6.4-2.56-6.4-6.4s2.56-6.4 6.4-6.4h6.4v-6.4c0-3.84 2.56-6.4 6.4-6.4s6.4 2.56 6.4 6.4v5.12h6.4c3.84 0 6.4 2.56 6.4 6.4s-2.56 7.68-6.4 7.68z m-864-396.8h-6.4v6.4c0 3.84-2.56 6.4-6.4 6.4s-6.4-2.56-6.4-6.4v-6.4h-6.4c-3.84 0-6.4-2.56-6.4-6.4s2.56-6.4 6.4-6.4h6.4v-6.4c0-3.84 2.56-6.4 6.4-6.4s6.4 2.56 6.4 6.4v5.12h6.4c3.84 0 6.4 2.56 6.4 6.4s-3.84 7.68-6.4 7.68zM1150.72 670.72h-6.4v6.4c0 3.84-2.56 6.4-6.4 6.4s-6.4-2.56-6.4-6.4v-6.4h-6.4c-3.84 0-6.4-2.56-6.4-6.4s2.56-6.4 6.4-6.4h6.4v-6.4c0-3.84 2.56-6.4 6.4-6.4s6.4 2.56 6.4 6.4v6.4h6.4c3.84 0 6.4 2.56 6.4 6.4 0 2.56-2.56 6.4-6.4 6.4zM194.56 42.24h-37.12c-3.84 0-6.4 2.56-6.4 6.4s2.56 6.4 6.4 6.4h37.12c3.84 0 6.4-2.56 6.4-6.4s-3.84-6.4-6.4-6.4z m104.96 0h-84.48c-3.84 0-6.4 2.56-6.4 6.4s2.56 6.4 6.4 6.4h84.48c3.84 0 6.4-2.56 6.4-6.4s-2.56-6.4-6.4-6.4z m1090.56 0h-37.12c-3.84 0-6.4 2.56-6.4 6.4s2.56 6.4 6.4 6.4h37.12c3.84 0 6.4-2.56 6.4-6.4s-2.56-6.4-6.4-6.4z m-57.6 0h-84.48c-3.84 0-6.4 2.56-6.4 6.4s2.56 6.4 6.4 6.4h84.48c3.84 0 6.4-2.56 6.4-6.4s-3.84-6.4-6.4-6.4z m-110.08 0h-896c-3.84 0-6.4 2.56-6.4 6.4s2.56 6.4 6.4 6.4h896c3.84 0 6.4-2.56 6.4-6.4s-3.84-6.4-6.4-6.4z m-753.92-56.32h-37.12c-3.84 0-6.4 2.56-6.4 6.4s2.56 6.4 6.4 6.4h37.12c3.84 0 6.4-2.56 6.4-6.4s-2.56-6.4-6.4-6.4z m252.16 0h-218.88c-3.84 0-6.4 2.56-6.4 6.4s2.56 6.4 6.4 6.4h218.88c3.84 0 6.4-2.56 6.4-6.4s-3.84-6.4-6.4-6.4z m394.24 0h-58.88c-3.84 0-6.4 2.56-6.4 6.4s2.56 6.4 6.4 6.4h58.88c3.84 0 6.4-2.56 6.4-6.4s-2.56-6.4-6.4-6.4z m-97.28 0h-254.72c-3.84 0-6.4 2.56-6.4 6.4s2.56 6.4 6.4 6.4h254.72c3.84 0 6.4-2.56 6.4-6.4s-3.84-6.4-6.4-6.4zM597.76-115.2h37.12v-11.52h-37.12v11.52z m69.12 0h218.88v-11.52h-218.88v11.52z m261.12 0h20.48v-11.52h-20.48v11.52zM1272.32 599.04c-1.28 0-1.28 1.28-2.56 1.28 0 1.28 0 2.56 1.28 2.56 43.52 17.92 74.24 51.2 89.6 85.76-3.84 1.28-6.4 2.56-8.96 3.84-12.8 11.52-7.68 39.68 0 56.32 2.56 6.4 8.96 19.2 16.64 19.2 3.84 0 6.4-5.12 7.68-12.8 2.56-19.2 0-42.24-8.96-62.72 10.24 0 25.6 6.4 48.64 21.76 70.4 48.64 113.92 102.4 113.92 144.64 0 14.08-5.12 25.6-14.08 32-1.28 1.28-1.28 2.56 0 2.56 1.28 1.28 2.56 1.28 2.56 0 10.24-7.68 15.36-20.48 15.36-35.84 0-20.48-12.8-76.8-116.48-147.2-23.04-15.36-39.68-23.04-52.48-23.04-14.08-35.84-44.8-70.4-92.16-88.32 1.28 0 1.28 0 0 0z m97.28 165.12c-2.56 0-7.68-5.12-12.8-16.64-7.68-17.92-11.52-42.24-1.28-51.2 1.28-1.28 5.12-2.56 7.68-3.84 8.96 21.76 11.52 43.52 8.96 62.72 0 6.4-1.28 8.96-2.56 8.96z m-1363.2-673.28h-3.84c-1.28 0-2.56 1.28-2.56 2.56s1.28 2.56 2.56 2.56 62.72-2.56 87.04 30.72c-11.52-1.28-19.2 5.12-23.04 16.64-6.4 17.92-5.12 34.56 3.84 42.24 6.4 5.12 14.08 5.12 21.76 1.28 3.84-2.56 17.92-12.8 11.52-42.24 0-2.56-1.28-5.12-2.56-6.4 34.56 16.64 83.2 84.48 78.08 110.08 0 1.28 0 2.56 1.28 2.56s2.56 1.28 2.56 0c1.28 0 1.28-1.28 1.28-2.56 6.4-30.72-48.64-106.24-87.04-119.04-8.96-16.64-25.6-28.16-49.92-34.56-16.64-3.84-33.28-3.84-40.96-3.84z m75.52 93.44c-2.56 0-5.12-1.28-7.68-2.56-7.68-6.4-7.68-19.2-2.56-34.56 3.84-10.24 11.52-14.08 21.76-11.52l3.84 11.52c3.84 20.48-1.28 32-8.96 35.84-1.28 0-3.84 1.28-6.4 1.28z m1034.24 247.04c-8.96-11.52-24.32-11.52-34.56-2.56-323.84 288-596.48 12.8-609.28 0-5.12-5.12-11.52-7.68-16.64-7.68-6.4 0-11.52 2.56-16.64 7.68-8.96 8.96-10.24 24.32 0 34.56 2.56 3.84 317.44 321.28 675.84 2.56 10.24-8.96 11.52-25.6 1.28-34.56z m-97.28-71.68c8.96-6.4 10.24-17.92 6.4-26.88-12.8 2.56-24.32 5.12-38.4 5.12-5.12 0-11.52 0-16.64-1.28-220.16 179.2-392.96-6.4-400.64-15.36-5.12-6.4-11.52-8.96-17.92-8.96-5.12 0-11.52 2.56-15.36 6.4-10.24 8.96-10.24 24.32-1.28 34.56 3.84 2.56 222.72 240.64 483.84 6.4z m-248.32-43.52c34.56 1.28 69.12-7.68 101.12-29.44-11.52-11.52-20.48-25.6-28.16-40.96-23.04 14.08-46.08 21.76-70.4 20.48-60.16-1.28-106.24-55.04-106.24-55.04-8.96-11.52-24.32-12.8-34.56-3.84-11.52 8.96-11.52 23.04-3.84 34.56 3.84 3.84 58.88 70.4 142.08 74.24z m7.68-130.56c12.8 0 25.6-5.12 34.56-14.08 8.96-8.96 14.08-21.76 14.08-34.56 0-12.8-5.12-25.6-14.08-34.56-8.96-8.96-21.76-14.08-34.56-14.08-12.8 0-25.6 5.12-34.56 14.08-8.96 8.96-14.08 21.76-14.08 34.56 0 12.8 5.12 25.6 14.08 34.56 8.96 8.96 21.76 14.08 34.56 14.08z m209.92 110.08c66.56 0 120.32-55.04 120.32-121.6 0-67.84-53.76-121.6-120.32-121.6s-120.32 55.04-120.32 121.6 53.76 121.6 120.32 121.6z m-10.24-192c2.56-2.56 6.4-3.84 10.24-3.84 3.84 0 7.68 1.28 10.24 3.84 2.56 2.56 3.84 6.4 3.84 10.24 0 3.84-1.28 7.68-3.84 10.24-2.56 2.56-6.4 3.84-10.24 3.84-3.84 0-7.68-1.28-10.24-3.84-2.56-2.56-3.84-6.4-3.84-10.24 0-2.56 1.28-6.4 3.84-10.24z m-8.96 119.04l7.68-72.96c0-5.12 5.12-10.24 10.24-10.24s10.24 3.84 10.24 10.24l7.68 72.96v3.84c0 10.24-7.68 19.2-17.92 19.2-10.24 0-17.92-8.96-17.92-19.2v-3.84z"  horiz-adv-x="1536" />

    
    <glyph glyph-name="search" unicode="&#59034;" d="M716.8 684.8c-140.8 140.8-364.8 140.8-505.6 0s-140.8-364.8 0-505.6 364.8-140.8 505.6 0 140.8 364.8 0 505.6z m-582.4-582.4c-179.2 179.2-179.2 473.6 0 659.2 179.2 179.2 473.6 179.2 659.2 0 179.2-179.2 179.2-473.6 0-659.2-179.2-179.2-473.6-179.2-659.2 0z m870.4-211.2c-25.6-25.6-64-25.6-89.6 0l-89.6 89.6c-25.6 25.6-25.6 64 0 89.6 25.6 25.6 64 25.6 89.6 0l89.6-89.6c25.6-25.6 25.6-64 0-89.6z"  horiz-adv-x="1024" />

    
    <glyph glyph-name="arrows" unicode="&#59036;" d="M219.428571-18.285714l109.714286-109.714286 512 512-512 512-109.714286-109.714286 402.285715-402.285714z"  horiz-adv-x="1024" />

    
    <glyph glyph-name="activee" unicode="&#59037;" d="M170.666667 896h682.666666c96.711111 0 170.666667-73.955556 170.666667-170.666667v-682.666666c0-96.711111-73.955556-170.666667-170.666667-170.666667h-682.666666c-96.711111 0-170.666667 73.955556-170.666667 170.666667v682.666666c0 96.711111 73.955556 170.666667 170.666667 170.666667zM830.577778 526.222222l-73.955556 73.955556-341.333333-347.022222-147.911111 153.6-73.955556-79.644445 221.866667-221.866667z"  horiz-adv-x="1024" />

    
    <glyph glyph-name="dingtou" unicode="&#59040;" d="M636.342857 822.857143v-789.942857l80.457143 80.457143 51.2-51.2-175.542857-175.542858-175.542857 175.542858 51.2 51.2 80.457143-80.457143v789.942857h-329.142858c-80.457143 0-146.285714-65.828571-146.285714-146.285714v-402.285715h-73.142857v402.285715c0 124.342857 95.085714 219.428571 219.428571 219.428571h731.428572c124.342857 0 219.428571-95.085714 219.428571-219.428571v-402.285715h-73.142857v402.285715c0 80.457143-65.828571 146.285714-146.285714 146.285714h-314.514286z"  horiz-adv-x="1184" />

    
    <glyph glyph-name="goumai" unicode="&#59042;" d="M800 172.8l70.4 70.4 44.8-44.8-153.6-153.6-153.6 153.6 44.8 44.8 70.4-70.4v659.2h64v-659.2z m-620.8 396.8c-12.8 57.6-64 102.4-128 102.4h-51.2v64h51.2c89.6 0 172.8-64 192-160l89.6-473.6c12.8-64 64-102.4 128-102.4h569.6v-64h-569.6c-89.6 0-172.8 64-192 160l-89.6 473.6z"  horiz-adv-x="1030" />

    
    <glyph glyph-name="normal" unicode="&#59043;" d="M1018.905473 4.457711c0-71.323383-61.134328-132.457711-132.457712-132.457711h-759.084577c-71.323383 0-127.363184 61.134328-127.363184 132.457711 0 25.472637 10.189055 50.945274 20.378109 71.323384 91.701493 122.268657 275.104478 198.686567 489.074627 198.686567 208.875622 0 392.278607-66.228856 483.9801-188.497513 15.283582-25.472637 25.472637-50.945274 25.472637-81.512438z m-509.452737 341.333334c-132.457711 0-244.537313 122.268657-244.537313 275.104477 0 152.835821 106.985075 275.104478 244.537313 275.104478s244.537313-122.268657 244.537314-275.104478c0-152.835821-112.079602-275.104478-244.537314-275.104477z"  horiz-adv-x="1024" />

    
    <glyph glyph-name="nocard" unicode="&#59044;" d="M287.640449 641.725843c-25.31236 0-46.022472-21.860674-46.022471-49.474158v-428.008988c0-27.613483 20.710112-49.474157 46.022471-49.474158h701.842697c25.31236 0 46.022472 21.860674 46.022472 49.474158v428.008988c0 27.613483-20.710112 49.474157-46.022472 49.474158h-701.842697z m0 24.161797h701.842697c37.968539 0 69.033708-33.366292 69.033708-73.635955v-428.008988c0-40.269663-31.065169-73.635955-69.033708-73.635955h-701.842697c-37.968539 0-69.033708 33.366292-69.033707 73.635955v428.008988c0 41.420225 31.065169 73.635955 69.033707 73.635955zM230.11236 527.820225h816.898876v-23.011236h-816.898876zM230.11236 481.797753h816.898876v-23.011236h-816.898876zM546.516854-116.494382h46.022472c3.451685 0 5.752809-2.301124 5.752809-5.752809s-2.301124-5.752809-5.752809-5.752809h-46.022472c-3.451685 0-5.752809 2.301124-5.752809 5.752809s2.301124 5.752809 5.752809 5.752809zM799.640449-116.494382h356.674158c3.451685 0 5.752809-2.301124 5.752809-5.752809s-2.301124-5.752809-5.752809-5.752809h-356.674158c-3.451685 0-5.752809 2.301124-5.752809 5.752809s2.301124 5.752809 5.752809 5.752809zM5.752809-116.494382h460.224719c3.451685 0 5.752809-2.301124 5.752809-5.752809s-2.301124-5.752809-5.752809-5.752809h-460.224719c-3.451685 0-5.752809 2.301124-5.752809 5.752809s2.301124 5.752809 5.752809 5.752809zM1236.853933-116.494382h69.033707c3.451685 0 5.752809-2.301124 5.752809-5.752809s-2.301124-5.752809-5.752809-5.752809h-69.033707c-3.451685 0-5.752809 2.301124-5.752809 5.752809s2.301124 5.752809 5.752809 5.752809zM914.696629 33.078652h115.05618c3.451685 0 5.752809-2.301124 5.752809-5.752809s-2.301124-5.752809-5.752809-5.752809h-115.05618c-3.451685 0-5.752809 2.301124-5.752809 5.752809s2.301124 5.752809 5.752809 5.752809zM258.876404 33.078652h172.58427c3.451685 0 5.752809-2.301124 5.752809-5.752809s-2.301124-5.752809-5.752809-5.752809h-172.58427c-3.451685 0-5.752809 2.301124-5.752808 5.752809s2.301124 5.752809 5.752808 5.752809zM362.426966-12.94382h609.797753c3.451685 0 5.752809-2.301124 5.752809-5.752809s-2.301124-5.752809-5.752809-5.752809h-609.797753c-3.451685 0-5.752809 2.301124-5.752809 5.752809s2.301124 5.752809 5.752809 5.752809zM143.820225 33.078652h69.033708c3.451685 0 5.752809-2.301124 5.752809-5.752809s-2.301124-5.752809-5.752809-5.752809h-69.033708c-3.451685 0-5.752809 2.301124-5.752809 5.752809s2.301124 5.752809 5.752809 5.752809zM132.314607 717.662921v46.022472c0 3.451685-2.301124 5.752809-5.752809 5.752809s-5.752809-2.301124-5.752809-5.752809v-46.022472h-46.022472c-3.451685 0-5.752809-2.301124-5.752809-5.752809s2.301124-5.752809 5.752809-5.752809h46.022472v-46.022472c0-3.451685 2.301124-5.752809 5.752809-5.752809s5.752809 2.301124 5.752809 5.752809v46.022472h46.022472c3.451685 0 5.752809 2.301124 5.752809 5.752809s-2.301124 5.752809-5.752809 5.752809h-46.022472zM949.213483 844.224719v46.022472c0 3.451685-2.301124 5.752809-5.752809 5.752809s-5.752809-2.301124-5.752809-5.752809v-46.022472h-46.022472c-3.451685 0-5.752809-2.301124-5.752809-5.752809s2.301124-5.752809 5.752809-5.752809h46.022472v-46.022472c0-3.451685 2.301124-5.752809 5.752809-5.752809s5.752809 2.301124 5.752809 5.752809v46.022472h46.022472c3.451685 0 5.752809 2.301124 5.752809 5.752809s-2.301124 5.752809-5.752809 5.752809h-46.022472zM1167.820225 539.325843h-34.516854c-3.451685 0-5.752809-2.301124-5.752809-5.752809s2.301124-5.752809 5.752809-5.752809h34.516854v-34.516854c0-3.451685 2.301124-5.752809 5.752809-5.752809s5.752809 2.301124 5.752809 5.752809v34.516854h34.516854c3.451685 0 5.752809 2.301124 5.752809 5.752809s-2.301124 5.752809-5.752809 5.752809h-34.516854v34.516854c0 3.451685-2.301124 5.752809-5.752809 5.752809s-5.752809-2.301124-5.752809-5.752809v-34.516854zM676.530337 178.049438c0 21.860674-17.258427 39.119101-39.119101 39.119101s-39.119101-17.258427-39.119101-39.119101c0-6.903371 4.602247-11.505618 11.505618-11.505618s11.505618 4.602247 11.505618 11.505618c0 9.204494 6.903371 16.107865 16.107865 16.107865s16.107865-6.903371 16.107865-16.107865c0-6.903371 4.602247-11.505618 11.505618-11.505618s11.505618 5.752809 11.505618 11.505618zM408.449438 378.247191h103.550562c9.204494 0 17.258427-8.053933 17.258427-17.258427s-8.053933-17.258427-17.258427-17.258427h-103.550562c-9.204494 0-17.258427 8.053933-17.258427 17.258427s8.053933 17.258427 17.258427 17.258427zM765.123596 378.247191h103.550561c9.204494 0 17.258427-8.053933 17.258427-17.258427s-8.053933-17.258427-17.258427-17.258427h-103.550561c-9.204494 0-17.258427 8.053933-17.258427 17.258427s8.053933 17.258427 17.258427 17.258427z"  horiz-adv-x="1311" />

    
    <glyph glyph-name="nodata" unicode="&#59045;" d="M916.210526 692.277895c11.856842 0 20.48-9.701053 20.48-20.48v-503.376842l-150.905263-147.671579h-360.016842c-11.856842 0-20.48 9.701053-20.48 20.48v630.568421c0 11.856842 9.701053 20.48 20.48 20.48h490.442105z m0 11.856842h-489.36421c-18.324211 0-33.414737-15.090526-33.414737-32.336842v-630.568421c0-18.324211 15.090526-32.336842 33.414737-32.336842h364.328421l4.311579 4.311579 75.452631 74.374736 51.738948 50.661053 17.246316 17.246316c9.701053 9.701053 10.778947 9.701053 10.778947 15.090526v503.376842c-1.077895 15.090526-16.168421 30.181053-34.492632 30.181053zM847.225263 590.955789h-309.355789c-4.311579 0-7.545263-3.233684-7.545263-7.545263v-4.311579c0-4.311579 3.233684-7.545263 7.545263-7.545263h309.355789c4.311579 0 7.545263 3.233684 7.545263 7.545263v4.311579c1.077895 4.311579-3.233684 7.545263-7.545263 7.545263z m0-133.658947h-309.355789c-4.311579 0-7.545263-3.233684-7.545263-7.545263v-4.311579c0-4.311579 3.233684-7.545263 7.545263-7.545263h309.355789c4.311579 0 7.545263 3.233684 7.545263 7.545263v4.311579c1.077895 4.311579-3.233684 7.545263-7.545263 7.545263zM791.174737 4.581053h-2.15579c-2.155789 1.077895-3.233684 3.233684-4.311579 5.389473v154.138948c0 3.233684 3.233684 6.467368 6.467369 6.467368h157.372631c2.155789 0 4.311579-1.077895 5.389474-3.233684 1.077895-2.155789 0-4.311579-1.077895-6.467369l-157.372631-154.138947c-1.077895-1.077895-2.155789-2.155789-4.311579-2.155789z m6.467368 154.138947v-133.658947l136.892632 133.658947H797.642105z m-216.656842 147.671579c0-10.778947 6.467368-21.557895 16.168421-26.947368s21.557895-5.389474 31.258948 0c9.701053 5.389474 16.168421 16.168421 16.168421 26.947368s-6.467368 21.557895-16.168421 26.947368-21.557895 5.389474-31.258948 0c-9.701053-6.467368-16.168421-16.168421-16.168421-26.947368z m158.450526 0c0-10.778947 6.467368-21.557895 16.168422-26.947368s21.557895-5.389474 31.258947 0c9.701053 5.389474 16.168421 16.168421 16.168421 26.947368s-6.467368 21.557895-16.168421 26.947368-21.557895 5.389474-31.258947 0c-10.778947-6.467368-16.168421-16.168421-16.168422-26.947368z m-47.427368-81.92c-16.168421 0-32.336842-7.545263-49.583158-21.557895-1.077895-1.077895-2.155789-3.233684-2.155789-5.389473s0-4.311579 2.155789-5.389474c2.155789-3.233684 7.545263-3.233684 10.778948-1.077895 29.103158 23.713684 51.738947 23.713684 79.76421 0 3.233684-2.155789 7.545263-2.155789 10.778947 1.077895 1.077895 1.077895 2.155789 3.233684 2.15579 5.389474s-1.077895 3.233684-2.15579 5.389473c-19.402105 14.012632-35.570526 21.557895-51.738947 21.557895z m400.976842-294.265263h-820.277895c-3.233684 0-6.467368 2.155789-6.467368 6.467368 0 3.233684 3.233684 6.467368 6.467368 6.467369h820.277895c3.233684 0 6.467368-2.155789 6.467369-6.467369 0-4.311579-3.233684-6.467368-6.467369-6.467368z m192.943158 0h-162.762105c-3.233684 0-6.467368 2.155789-6.467369 6.467368 0 3.233684 3.233684 6.467368 6.467369 6.467369h162.762105c3.233684 0 6.467368-2.155789 6.467368-6.467369 0-4.311579-2.155789-6.467368-6.467368-6.467368z m-1041.246316 0h-122.88c-3.233684 0-6.467368 2.155789-6.467368 6.467368 0 3.233684 3.233684 6.467368 6.467368 6.467369h122.88c3.233684 0 6.467368-2.155789 6.467369-6.467369 0-4.311579-2.155789-6.467368-6.467369-6.467368z m780.39579-54.972632h-612.244211c-3.233684 0-6.467368 2.155789-6.467368 6.467369 0 3.233684 3.233684 6.467368 6.467368 6.467368h612.244211c3.233684 0 6.467368-2.155789 6.467368-6.467368 0-4.311579-3.233684-6.467368-6.467368-6.467369z m-640.269474 0h-81.92c-3.233684 0-6.467368 2.155789-6.467368 6.467369 0 3.233684 3.233684 6.467368 6.467368 6.467368h81.92c3.233684 0 6.467368-2.155789 6.467368-6.467368-1.077895-4.311579-3.233684-6.467368-6.467368-6.467369z m-291.031579 54.972632h-61.44c-3.233684 0-6.467368 2.155789-6.467368 6.467368 0 3.233684 3.233684 6.467368 6.467368 6.467369h61.44c3.233684 0 6.467368-2.155789 6.467369-6.467369 0-4.311579-2.155789-6.467368-6.467369-6.467368zM150.905263 94.046316c0-11.856842 6.467368-23.713684 17.246316-29.103158 10.778947-6.467368 23.713684-6.467368 34.492632 0s17.246316 17.246316 17.246315 29.103158-6.467368 23.713684-17.246315 29.103158c-10.778947 6.467368-23.713684 6.467368-34.492632 0-10.778947-5.389474-17.246316-17.246316-17.246316-29.103158zM185.397895 54.164211c-22.635789 0-40.96 18.324211-40.96 39.882105s18.324211 39.882105 40.96 39.882105c22.635789 0 40.96-18.324211 40.96-39.882105 0-22.635789-18.324211-39.882105-40.96-39.882105z m0 67.907368c-16.168421 0-28.025263-12.934737-28.025263-28.025263 0-15.090526 12.934737-28.025263 28.025263-28.025263 16.168421 0 28.025263 12.934737 28.025263 28.025263 0 15.090526-11.856842 28.025263-28.025263 28.025263zM150.905263 684.732632c0-15.090526 12.934737-28.025263 28.025263-28.025264 16.168421 0 28.025263 12.934737 28.025263 28.025264 0 9.701053-5.389474 19.402105-14.012631 23.713684-8.623158 5.389474-19.402105 5.389474-28.025263 0-8.623158-4.311579-14.012632-12.934737-14.012632-23.713684zM178.930526 651.317895c-19.402105 0-34.492632 15.090526-34.492631 34.492631 0 18.324211 15.090526 34.492632 34.492631 34.492632 19.402105 0 34.492632-15.090526 34.492632-34.492632 0-19.402105-15.090526-34.492632-34.492632-34.492631z m0 56.050526c-11.856842 0-22.635789-9.701053-22.635789-21.557895s9.701053-21.557895 22.635789-21.557894c11.856842 0 22.635789 9.701053 22.63579 21.557894s-9.701053 21.557895-22.63579 21.557895zM807.343158 859.351579c0-15.090526 12.934737-28.025263 28.025263-28.025263 16.168421 0 28.025263 12.934737 28.025263 28.025263 0 15.090526-12.934737 28.025263-28.025263 28.025263-15.090526 0-28.025263-11.856842-28.025263-28.025263zM836.446316 825.936842c-19.402105 0-34.492632 15.090526-34.492632 34.492632 0 18.324211 15.090526 34.492632 34.492632 34.492631 19.402105 0 34.492632-15.090526 34.492631-34.492631 0-19.402105-16.168421-34.492632-34.492631-34.492632z m0 56.050526c-11.856842 0-22.635789-9.701053-22.63579-21.557894s9.701053-21.557895 22.63579-21.557895 22.635789 9.701053 22.635789 21.557895c-1.077895 10.778947-10.778947 21.557895-22.635789 21.557894zM271.629474 632.993684c0-6.467368 3.233684-11.856842 8.623158-15.090526 5.389474-3.233684 12.934737-3.233684 18.32421 0s8.623158 8.623158 8.623158 15.090526c0 6.467368-3.233684 11.856842-8.623158 15.090527-5.389474 3.233684-12.934737 3.233684-18.32421 0s-8.623158-8.623158-8.623158-15.090527zM288.875789 612.513684c-11.856842 0-21.557895 9.701053-21.557894 20.48s9.701053 20.48 21.557894 20.48 21.557895-9.701053 21.557895-20.48-9.701053-20.48-21.557895-20.48z m0 35.570527c-8.623158 0-15.090526-6.467368-15.090526-15.090527s6.467368-15.090526 15.090526-15.090526 15.090526 6.467368 15.090527 15.090526-6.467368 15.090526-15.090527 15.090527z m673.684211-566.972632c0-6.467368 3.233684-11.856842 8.623158-15.090526 5.389474-3.233684 12.934737-3.233684 18.32421 0s8.623158 8.623158 8.623158 15.090526c0 6.467368-3.233684 11.856842-8.623158 15.090526-5.389474 3.233684-12.934737 3.233684-18.32421 0s-8.623158-8.623158-8.623158-15.090526zM520.623158 874.442105c0-6.467368 3.233684-11.856842 8.623158-15.090526 5.389474-3.233684 12.934737-3.233684 18.32421 0s8.623158 8.623158 8.623158 15.090526c0 6.467368-3.233684 11.856842-8.623158 15.090527-5.389474 3.233684-12.934737 3.233684-18.32421 0-5.389474-2.155789-8.623158-8.623158-8.623158-15.090527zM537.869474 853.962105c-11.856842 0-21.557895 9.701053-21.557895 20.48 0 11.856842 9.701053 20.48 21.557895 20.48s21.557895-9.701053 21.557894-20.48c0-10.778947-9.701053-20.48-21.557894-20.48z m0 35.570527c-8.623158 0-15.090526-6.467368-15.090527-15.090527s6.467368-15.090526 15.090527-15.090526c8.623158 0 15.090526 6.467368 15.090526 15.090526 0 8.623158-6.467368 15.090526-15.090526 15.090527zM1058.492632 466.997895c0-6.467368 3.233684-11.856842 8.623157-15.090527 5.389474-3.233684 12.934737-3.233684 18.324211 0s8.623158 8.623158 8.623158 15.090527c0 6.467368-3.233684 11.856842-8.623158 15.090526-5.389474 3.233684-12.934737 3.233684-18.324211 0-5.389474-2.155789-8.623158-8.623158-8.623157-15.090526zM1076.816842 446.517895c-11.856842 0-21.557895 9.701053-21.557895 20.48 0 11.856842 9.701053 20.48 21.557895 20.48s21.557895-9.701053 21.557895-20.48c-1.077895-10.778947-9.701053-20.48-21.557895-20.48z m0 35.570526c-8.623158 0-15.090526-6.467368-15.090526-15.090526 0-7.545263 6.467368-15.090526 15.090526-15.090527 8.623158 0 15.090526 6.467368 15.090526 15.090527 0 8.623158-6.467368 15.090526-15.090526 15.090526z m100.244211-371.873684c0-5.389474 3.233684-9.701053 7.545263-11.856842s9.701053-2.155789 14.012631 0 7.545263 7.545263 7.545264 11.856842c0 5.389474-3.233684 9.701053-7.545264 11.856842-4.311579 2.155789-9.701053 2.155789-14.012631 0-5.389474-2.155789-7.545263-6.467368-7.545263-11.856842zM626.256842 816.235789c0-5.389474 3.233684-10.778947 7.545263-12.934736 4.311579-2.155789 10.778947-2.155789 15.090527 0 4.311579 2.155789 7.545263 7.545263 7.545263 12.934736s-3.233684 10.778947-7.545263 12.934737c-4.311579 2.155789-10.778947 2.155789-15.090527 0-4.311579-2.155789-7.545263-7.545263-7.545263-12.934737zM642.425263 797.911579c-9.701053 0-18.324211 7.545263-18.32421 18.32421 0 9.701053 8.623158 18.324211 18.32421 18.324211s18.324211-7.545263 18.324211-18.324211-8.623158-18.324211-18.324211-18.32421z m0 30.181053c-6.467368 0-11.856842-5.389474-11.856842-11.856843 0-6.467368 5.389474-11.856842 11.856842-11.856842s11.856842 5.389474 11.856842 11.856842c0 6.467368-5.389474 11.856842-11.856842 11.856843zM1221.254737 291.301053c0-3.233684 2.155789-6.467368 5.389474-8.623158 3.233684-2.155789 7.545263-2.155789 9.701052 0 3.233684 2.155789 5.389474 5.389474 5.389474 8.623158 0 3.233684-2.155789 6.467368-5.389474 8.623158-3.233684 2.155789-7.545263 2.155789-9.701052 0-4.311579-1.077895-5.389474-5.389474-5.389474-8.623158zM1230.955789 279.444211c-6.467368 0-11.856842 5.389474-11.856842 11.856842 0 6.467368 5.389474 11.856842 11.856842 11.856842 6.467368 0 11.856842-5.389474 11.856843-11.856842 0-6.467368-5.389474-11.856842-11.856843-11.856842z m0 20.48c-4.311579 0-8.623158-3.233684-8.623157-7.545264 0-4.311579 3.233684-7.545263 8.623157-7.545263 4.311579 0 8.623158 3.233684 8.623158 7.545263 0 3.233684-4.311579 7.545263-8.623158 7.545264zM3.233684 195.368421c0-5.389474 4.311579-9.701053 9.701053-9.701053s9.701053 4.311579 9.701052 9.701053-4.311579 9.701053-9.701052 9.701053c-5.389474 1.077895-9.701053-3.233684-9.701053-9.701053zM12.934737 183.511579c-6.467368 0-11.856842 5.389474-11.856842 11.856842 0 6.467368 5.389474 11.856842 11.856842 11.856842 6.467368 0 11.856842-5.389474 11.856842-11.856842 1.077895-6.467368-4.311579-11.856842-11.856842-11.856842z m0 20.48c-4.311579 0-8.623158-3.233684-8.623158-7.545263 0-4.311579 3.233684-7.545263 8.623158-7.545263 4.311579 0 8.623158 3.233684 8.623158 7.545263 0 3.233684-3.233684 7.545263-8.623158 7.545263zM80.842105 511.191579c0-5.389474 4.311579-9.701053 9.701053-9.701053s9.701053 4.311579 9.701053 9.701053-4.311579 9.701053-9.701053 9.701053c-4.311579 0-9.701053-4.311579-9.701053-9.701053zM91.621053 499.334737c-6.467368 0-11.856842 5.389474-11.856842 11.856842 0 6.467368 5.389474 11.856842 11.856842 11.856842s11.856842-5.389474 11.856842-11.856842c0-6.467368-5.389474-11.856842-11.856842-11.856842z m0 20.48c-4.311579 0-8.623158-3.233684-8.623158-7.545263 0-4.311579 3.233684-7.545263 8.623158-7.545263 4.311579 0 8.623158 3.233684 8.623158 7.545263-1.077895 3.233684-4.311579 7.545263-8.623158 7.545263z m302.888421 273.785263h-40.96c-2.155789 0-4.311579 2.155789-4.311579 4.311579s2.155789 4.311579 4.311579 4.311579h40.96c2.155789 0 4.311579-2.155789 4.311579-4.311579 0-3.233684-2.155789-4.311579-4.311579-4.311579zM374.029474 770.964211c-1.077895 0-2.155789 0-3.233685 1.077894-1.077895 1.077895-1.077895 2.155789-1.077894 3.233684V819.469474c0 2.155789 2.155789 4.311579 4.311579 4.311579s4.311579-2.155789 4.311579-4.311579v-45.271579c0-2.155789-2.155789-4.311579-4.311579-3.233684z m700.631579-137.970527h-47.427369c-1.077895 0-2.155789 0-3.233684 1.077895-1.077895 1.077895-1.077895 2.155789-1.077895 3.233684 0 2.155789 2.155789 4.311579 4.311579 4.311579h47.427369c2.155789 0 4.311579-2.155789 4.311579-4.311579s-2.155789-4.311579-4.311579-4.311579zM1050.947368 610.357895c-2.155789 0-4.311579 2.155789-4.311579 4.311579v45.271579c0 2.155789 2.155789 4.311579 4.311579 4.311579s4.311579-2.155789 4.311579-4.311579v-45.271579c0-2.155789-2.155789-4.311579-4.311579-4.311579z m-744.825263-368.64h-47.427368c-1.077895 0-2.155789 0-3.233684 1.077894-1.077895 1.077895-1.077895 2.155789-1.077895 3.233685 0 2.155789 2.155789 4.311579 4.311579 4.311579h47.427368c2.155789 0 4.311579-2.155789 4.311579-4.311579s-2.155789-4.311579-4.311579-4.311579zM282.408421 219.082105c-1.077895 0-2.155789 0-3.233684 1.077895-1.077895 1.077895-1.077895 2.155789-1.077895 3.233684v45.271579c0 2.155789 2.155789 4.311579 4.311579 4.311579s4.311579-2.155789 4.311579-4.311579v-45.271579c0-1.077895 0-2.155789-1.077895-3.233684-1.077895-1.077895-2.155789-1.077895-3.233684-1.077895z"  horiz-adv-x="1293" />

    
    <glyph glyph-name="normal1" unicode="&#59046;" d="M765.942272-128h-112.64c-20.48 0-40.96 20.48-40.96 40.96v286.72c0 51.2-40.96 97.28-97.28 97.28-51.2 0-97.28-40.96-97.28-97.28v-286.72c0-25.6-20.48-40.96-40.96-40.96h-112.64c-66.56 0-117.76 51.2-117.76 117.76v353.28h-102.4c-15.36 0-30.72 10.24-40.96 25.6-5.12 15.36-5.12 35.84 10.24 46.08l460.8 465.92c15.36 15.36 46.08 15.36 61.44 0l87.04-92.16c0 20.48 20.48 40.96 40.96 40.96h97.28c25.6 0 40.96-20.48 40.96-40.96v-184.32l204.8-189.44c10.24-10.24 15.36-30.72 10.24-46.08-5.12-15.36-20.48-25.6-40.96-25.6h-102.4v-353.28c10.24-61.44-40.96-117.76-107.52-117.76z"  horiz-adv-x="1027" />

    
    <glyph glyph-name="active" unicode="&#59047;" d="M512 896c-281.6 0-512-230.4-512-512s230.4-512 512-512 512 230.4 512 512-230.4 512-512 512z m158.72-471.04c20.48 0 40.96-15.36 40.96-40.96 0-20.48-15.36-40.96-40.96-40.96h-117.76v-76.8h117.76c20.48 0 40.96-15.36 40.96-40.96 0-20.48-15.36-40.96-40.96-40.96h-117.76v-117.76c0-20.48-15.36-40.96-40.96-40.96-20.48 0-40.96 15.36-40.96 40.96v117.76h-117.76c-20.48 0-40.96 15.36-40.96 40.96 0 20.48 15.36 40.96 40.96 40.96h117.76v76.8h-117.76c-20.48 0-40.96 15.36-40.96 40.96 0 20.48 15.36 40.96 40.96 40.96h117.76v25.6l-143.36 143.36c-15.36 15.36-15.36 40.96 0 56.32 15.36 15.36 40.96 15.36 56.32 0l128-128 128 128c15.36 15.36 40.96 15.36 56.32 0 15.36-15.36 15.36-40.96 0-56.32l-148.48-148.48v-25.6h122.88v5.12z"  horiz-adv-x="1024" />

    
    <glyph glyph-name="white" unicode="&#59049;" d="M576 448v448h-128v-448h-448v-128h448v-448h128v448h448v128h-448z"  horiz-adv-x="1024" />

    
    <glyph glyph-name="me" unicode="&#59050;" d="M467.2 302.08l40.96-43.52h7.68l43.52 48.64c53.76 10.24 104.96 35.84 148.48 66.56 7.68-2.56 12.8-7.68 23.04-12.8 133.12-81.92 220.16-232.96 220.16-394.24 0-25.6-138.24-89.6-450.56-89.6-312.32 0-450.56 64-450.56 89.6 0 168.96 94.72 325.12 238.08 404.48 2.56 2.56 5.12 2.56 7.68 5.12 51.2-40.96 110.08-66.56 171.52-74.24z m53.76-71.68h-15.36l-43.52-204.8 51.2-51.2 51.2 51.2-43.52 204.8zM508.16 896c-158.72 0-289.28-128-289.28-289.28 0-158.72 128-286.72 289.28-286.72 158.72 0 286.72 128 286.72 286.72 2.56 161.28-125.44 289.28-286.72 289.28z m-189.44-376.32c-5.12-5.12-10.24-7.68-15.36-7.68-5.12 0-12.8 2.56-15.36 7.68-5.12 5.12-7.68 10.24-7.68 15.36 0 5.12 2.56 12.8 7.68 15.36 7.68 7.68 23.04 7.68 30.72 0 5.12-5.12 7.68-10.24 7.68-15.36l-7.68-15.36z m176.64 281.6c-97.28 0-179.2-79.36-179.2-179.2 0-12.8-10.24-23.04-23.04-23.04s-23.04 10.24-23.04 23.04c0 122.88 99.84 222.72 222.72 222.72 12.8 0 23.04-10.24 23.04-23.04 2.56-10.24-7.68-20.48-20.48-20.48z"  horiz-adv-x="1024" />

    
    <glyph glyph-name="unchecked2" unicode="&#59052;" d="M512-71.111111A455.111111 455.111111 0 1 1 512 839.111111a455.111111 455.111111 0 0 1 0-910.222222z m0-56.888889A512 512 0 1 0 512 896a512 512 0 0 0 0-1024z"  horiz-adv-x="1024" />

    
    <glyph glyph-name="unchecked" unicode="&#59054;" d="M170.666667 839.111111c-62.577778 0-113.777778-51.2-113.777778-113.777778v-682.666666c0-62.577778 51.2-113.777778 113.777778-113.777778h682.666666c62.577778 0 113.777778 51.2 113.777778 113.777778v682.666666c0 62.577778-51.2 113.777778-113.777778 113.777778h-682.666666z m0 56.888889h682.666666c96.711111 0 170.666667-73.955556 170.666667-170.666667v-682.666666c0-96.711111-73.955556-170.666667-170.666667-170.666667h-682.666666c-96.711111 0-170.666667 73.955556-170.666667 170.666667v682.666666c0 96.711111 73.955556 170.666667 170.666667 170.666667z"  horiz-adv-x="1024" />

    
    <glyph glyph-name="unchecked1" unicode="&#59057;" d="M512-128c-284.444444 0-512 227.555556-512 512s227.555556 512 512 512 512-227.555556 512-512-227.555556-512-512-512z m-244.622222 494.933333l-79.644445-79.644444 210.488889-210.488889 438.044445 438.044444-79.644445 79.644445-358.4-358.4-130.844444 130.844444z"  horiz-adv-x="1024" />

    
    <glyph glyph-name="selected1" unicode="&#59064;" d="M1228.8 752.64l-143.36 143.36-655.36-655.36-286.72 286.72-143.36-143.36 430.08-430.08z"  horiz-adv-x="1228" />

    
    <glyph glyph-name="stop" unicode="&#59065;" d="M512-64c249.6 0 448 198.4 448 448s-198.4 448-448 448-448-198.4-448-448 198.4-448 448-448z m0-64c-281.6 0-512 230.4-512 512s230.4 512 512 512 512-230.4 512-512-230.4-512-512-512zM256 416h512v-64h-512z"  horiz-adv-x="1024" />

    
    <glyph glyph-name="xiugai" unicode="&#59066;" d="M150.588235-67.764706h903.529412c18.070588 0 30.117647-12.047059 30.117647-30.117647s-12.047059-30.117647-30.117647-30.117647h-903.529412c-18.070588 0-30.117647 12.047059-30.117647 30.117647s12.047059 30.117647 30.117647 30.117647zM659.937882 595.425882c-12.830118 12.769882-29.816471 12.769882-42.646588 0l-408.877176-417.430588v-119.265882h119.265882l417.430588 408.937412c12.769882 12.769882 12.769882 29.816471 0 42.586352l-85.172706 85.172706z m127.698824-42.586353c34.153412-34.093176 34.153412-93.726118 0-127.759058 0 0-136.252235-136.312471-417.370353-408.937412-12.769882-12.769882-25.539765-17.046588-42.586353-17.046588h-119.265882a58.247529 58.247529 0 0 0-59.632942 59.632941v119.265882c0 17.046588 4.276706 29.816471 17.046589 42.586353l408.877176 417.430588c34.093176 34.093176 93.726118 34.093176 127.819294 0l85.172706-85.172706zM843.294118 787.576471c-12.047059 12.047059-30.117647 12.047059-42.164706 0-12.047059-12.047059-12.047059-30.117647 0-42.164706l84.329412-84.329412c12.047059-12.047059 30.117647-12.047059 42.164705 0 12.047059 12.047059 12.047059 30.117647 0 42.164706l-84.329411 84.329412z m42.164706 42.164705l84.329411-84.329411c36.141176-36.141176 36.141176-90.352941 0-126.494118s-90.352941-36.141176-126.494117 0l-84.329412 84.329412c-36.141176 36.141176-36.141176 90.352941 0 126.494117s90.352941 36.141176 126.494118 0z"  horiz-adv-x="1084" />

    
    <glyph glyph-name="shuhui" unicode="&#59068;" d="M548.571429 362.057143l-80.457143 80.457143-51.2-51.2 175.542857-175.542857 175.542857 175.542857-51.2 51.2-80.457143-80.457143v314.514286c0 80.457143 65.828571 146.285714 146.285714 146.285714h182.857143c80.457143 0 146.285714-65.828571 146.285715-146.285714v-585.142858c0-80.457143-65.828571-146.285714-146.285715-146.285714h-731.428571c-80.457143 0-146.285714 65.828571-146.285714 146.285714V449.828571h-73.142858v-358.4c0-124.342857 95.085714-219.428571 219.428572-219.428571h731.428571c124.342857 0 219.428571 95.085714 219.428572 219.428571v585.142858c0 124.342857-95.085714 219.428571-219.428572 219.428571h-182.857143c-124.342857 0-219.428571-95.085714-219.428571-219.428571v-314.514286z"  horiz-adv-x="1184" />

    
    <glyph glyph-name="explain" unicode="&#59071;" d="M512 839.111111c-250.311111 0-455.111111-204.8-455.111111-455.111111s204.8-455.111111 455.111111-455.111111 455.111111 204.8 455.111111 455.111111-204.8 455.111111-455.111111 455.111111z m0 56.888889c284.444444 0 512-227.555556 512-512 0-278.755556-227.555556-512-512-512s-512 233.244444-512 512c0 284.444444 227.555556 512 512 512zM477.866667 668.444444c17.066667 11.377778 34.133333 22.755556 56.888889 22.755556s39.822222-5.688889 56.888888-22.755556c17.066667-11.377778 22.755556-28.444444 22.755556-51.2 0-17.066667-5.688889-34.133333-22.755556-51.2-17.066667-11.377778-34.133333-22.755556-56.888888-22.755555s-39.822222 11.377778-56.888889 22.755555c-17.066667 11.377778-22.755556 28.444444-22.755556 51.2 0 17.066667 5.688889 34.133333 22.755556 51.2z m159.288889-557.511111c-28.444444-11.377778-45.511111-17.066667-62.577778-22.755555-17.066667-5.688889-34.133333-5.688889-56.888889-5.688889-34.133333 0-56.888889 5.688889-73.955556 22.755555-17.066667 17.066667-28.444444 34.133333-28.444444 56.888889v28.444445c0 11.377778 5.688889 22.755556 5.688889 34.133333l34.133333 113.777778c5.688889 11.377778 5.688889 22.755556 5.688889 28.444444 0 11.377778 5.688889 17.066667 5.688889 28.444445 0 17.066667-5.688889 22.755556-11.377778 28.444444h-28.444444c-5.688889 0-17.066667 0-28.444445-5.688889-11.377778 0-17.066667-5.688889-22.755555-5.688889l11.377777 34.133334c22.755556 5.688889 39.822222 17.066667 62.577778 22.755555 17.066667 5.688889 39.822222 11.377778 56.888889 11.377778 34.133333 0 56.888889-5.688889 73.955556-22.755555 17.066667-17.066667 28.444444-34.133333 28.444444-56.888889v-28.444445c0-11.377778-5.688889-22.755556-5.688889-34.133333l-34.133333-113.777778c0-11.377778-5.688889-17.066667-5.688889-28.444444s-5.688889-22.755556-5.688889-28.444445c0-17.066667 5.688889-22.755556 11.377778-28.444444s17.066667-5.688889 34.133333-5.688889c5.688889 0 17.066667 0 28.444445 5.688889 11.377778 0 17.066667 5.688889 22.755555 5.688889l-17.066666-34.133334z"  horiz-adv-x="1024" />

    
    <glyph glyph-name="jiaoyijilu" unicode="&#59073;" d="M227.555556 782.222222h568.888888c34.133333 0 56.888889-22.755556 56.888889-56.888889v-682.666666c0-34.133333-22.755556-56.888889-56.888889-56.888889h-568.888888c-34.133333 0-56.888889 22.755556-56.888889 56.888889v682.666666c0 34.133333 22.755556 56.888889 56.888889 56.888889zM711.111111 611.555556h-398.222222c-17.066667 0-28.444444-11.377778-28.444445-28.444445s11.377778-28.444444 28.444445-28.444444h398.222222c17.066667 0 28.444444 11.377778 28.444445 28.444444s-11.377778 28.444444-28.444445 28.444445z m0-170.666667h-398.222222c-17.066667 0-28.444444-11.377778-28.444445-28.444445s11.377778-28.444444 28.444445-28.444444h398.222222c17.066667 0 28.444444 11.377778 28.444445 28.444444s-11.377778 28.444444-28.444445 28.444445z m-227.555555-170.666667h-170.666667c-17.066667 0-28.444444-11.377778-28.444445-28.444444s11.377778-28.444444 28.444445-28.444445h170.666667c17.066667 0 28.444444 11.377778 28.444444 28.444445s-11.377778 28.444444-28.444444 28.444444z m369.777777 625.777778v-56.888889c34.133333 0 56.888889-22.755556 56.888889-56.888889v-796.444444c0-34.133333-22.755556-56.888889-56.888889-56.888889h-682.666666c-34.133333 0-56.888889 22.755556-56.888889 56.888889v796.444444c0 34.133333 22.755556 56.888889 56.888889 56.888889v56.888889h-5.688889c-62.577778-5.688889-108.088889-51.2-108.088889-113.777778v-796.444444c0-62.577778 51.2-113.777778 113.777778-113.777778h682.666666c62.577778 0 113.777778 51.2 113.777778 113.777778v796.444444c0 62.577778-45.511111 108.088889-108.088889 113.777778h-5.688889z m-113.777777-28.444444c0 17.066667-11.377778 28.444444-28.444445 28.444444h-398.222222c-17.066667 0-28.444444-11.377778-28.444445-28.444444s11.377778-28.444444 28.444445-28.444445h398.222222c17.066667 0 28.444444 11.377778 28.444445 28.444445zM965.973333-71.111111c-12.060444-12.060444-28.16-12.060444-40.220444 0l-281.6 281.6c-12.060444 12.060444-12.060444 28.16 0 40.220444 12.117333 12.060444 28.16 12.060444 40.277333 0l281.6-281.6c12.003556-12.060444 12.003556-28.16 0-40.220444z"  horiz-adv-x="1024" />

    
    <glyph glyph-name="fengxianceping1" unicode="&#59074;" d="M805.782069 640.353103c-96.044138 0-192.088276 39.547586-265.533793 101.693794-16.948966 11.29931-39.547586 11.29931-50.846897 0-73.445517-62.146207-169.489655-101.693793-265.533793-101.693794-22.598621 0-33.897931-16.948966-33.897931-33.897931v-333.329655c0-5.649655 0-16.948966 5.649655-22.59862 73.445517-112.993103 180.788966-197.737931 310.731035-237.285518l11.29931-5.649655 11.299311 5.649655c129.942069 39.547586 242.935172 124.292414 310.731034 237.285518 5.649655 5.649655 5.649655 11.29931 5.649655 22.59862V606.455172c-5.649655 16.948966-22.598621 33.897931-39.547586 33.897931zM913.125517 742.046897c28.248276 0 50.846897-22.598621 50.846897-50.846897v-457.622069c0-11.29931-5.649655-22.598621-11.299311-28.248276-101.693793-152.54069-248.584828-271.183448-429.373793-327.68l-11.29931-5.649655-11.29931 5.649655c-180.788966 56.496552-327.68 175.13931-429.373793 327.68-5.649655 11.29931-11.29931 16.948966-11.299311 28.248276v457.622069c0 28.248276 22.598621 50.846897 50.846897 50.846897 135.591724 0 265.533793 50.846897 367.227586 141.241379 22.598621 16.948966 50.846897 16.948966 73.445517 0 96.044138-90.394483 225.986207-141.241379 361.577931-141.241379z m-45.197241-45.197242c-118.642759 0-237.285517 45.197241-327.68 124.292414-16.948966 16.948966-45.197241 16.948966-62.146207 0-90.394483-79.095172-203.387586-124.292414-327.68-124.292414-22.598621 0-45.197241-22.598621-45.197241-45.197241v-406.775173c0-11.29931 0-16.948966 5.649655-28.248275 90.394483-135.591724 220.336552-237.285517 384.176551-288.132414l11.299311-5.649655 11.29931 5.649655c163.84 50.846897 293.782069 152.54069 384.176552 288.132414 5.649655 5.649655 5.649655 16.948966 5.649655 28.248275v406.775173c5.649655 28.248276-11.29931 45.197241-39.547586 45.197241zM472.452414 267.475862l-152.54069 129.942069 50.846897 50.846897 101.693793-90.394483 220.336552 192.088276 50.846896-50.846897z"  horiz-adv-x="1024" />

    
    <glyph glyph-name="wodeziliao1" unicode="&#59075;" d="M119.466667-128c28.444444 193.422222 193.422222 341.333333 392.533333 341.333333s364.088889-147.911111 392.533333-341.333333h-785.066666z m392.533333 426.666667c-125.155556 0-227.555556 102.4-227.555556 227.555555s102.4 227.555556 227.555556 227.555556 227.555556-102.4 227.555556-227.555556-102.4-227.555556-227.555556-227.555555zM591.644444-128c-11.377778 0-22.755556 11.377778-22.755555 22.755556s11.377778 22.755556 22.755555 22.755555h358.4c11.377778 0 22.755556-11.377778 22.755556-22.755555s-11.377778-22.755556-22.755556-22.755556h-358.4z m-506.311111 0c-11.377778 0-22.755556 5.688889-28.444444 17.066667v11.377777c0 193.422222 119.466667 364.088889 295.822222 426.666667l11.377778 5.688889-11.377778 5.688889c-91.022222 51.2-147.911111 153.6-147.911111 256 0 164.977778 130.844444 295.822222 295.822222 295.822222 164.977778 0 295.822222-130.844444 295.822222-295.822222 0-102.4-51.2-199.111111-142.222222-256l-11.377778-5.688889 11.377778-5.688889c62.577778-22.755556 125.155556-56.888889 170.666667-108.088889 11.377778-11.377778 11.377778-28.444444 0-39.822222-5.688889-5.688889-11.377778-5.688889-17.066667-5.688889-5.688889 0-17.066667 5.688889-17.066666 5.688889-11.377778 11.377778-28.444444 22.755556-45.511112 39.822222-45.511111 34.133333-91.022222 56.888889-142.222222 68.266667h-5.688889c-5.688889 0-17.066667 5.688889-22.755555 5.688889h-73.955556c-216.177778 0-398.222222-182.044444-398.222222-398.222222 11.377778-11.377778 0-22.755556-17.066667-22.755556z m420.977778 967.111111c-130.844444 0-238.933333-108.088889-238.933333-238.933333 0-130.844444 108.088889-238.933333 238.933333-238.933334 62.577778 0 125.155556 22.755556 170.666667 68.266667 45.511111 45.511111 68.266667 108.088889 68.266666 170.666667 0 130.844444-108.088889 238.933333-238.933333 238.933333z m85.333333-859.022222c-11.377778 0-22.755556 11.377778-22.755555 22.755555s11.377778 22.755556 22.755555 22.755556h358.4c11.377778 0 22.755556-11.377778 22.755556-22.755556s-11.377778-22.755556-22.755556-22.755555h-358.4z m0 108.088889c-11.377778 0-22.755556 11.377778-22.755555 22.755555s11.377778 22.755556 22.755555 22.755556h358.4c11.377778 0 22.755556-11.377778 22.755556-22.755556s-11.377778-22.755556-22.755556-22.755555h-358.4z"  horiz-adv-x="1024" />

    
    <glyph glyph-name="yinhangka" unicode="&#59076;" d="M113.777778-14.222222c-56.888889 0-113.777778 56.888889-113.777778 113.777778v625.777777c0 56.888889 56.888889 113.777778 113.777778 113.777778h796.444444c56.888889 0 113.777778-56.888889 113.777778-113.777778v-625.777777c0-56.888889-56.888889-113.777778-113.777778-113.777778h-796.444444z m0 56.888889h796.444444c28.444444 0 56.888889 34.133333 56.888889 56.888889v512h-910.222222v-512c0-22.755556 28.444444-56.888889 56.888889-56.888889z m796.444444 739.555555h-796.444444c-28.444444 0-56.888889-22.755556-56.888889-56.888889v-56.888889h910.222222v56.888889c0 34.133333-28.444444 56.888889-56.888889 56.888889zM170.666667 554.666667h682.666666c34.133333 0 56.888889-22.755556 56.888889-56.888889v-341.333334c0-34.133333-22.755556-56.888889-56.888889-56.888888h-682.666666c-34.133333 0-56.888889 22.755556-56.888889 56.888888v341.333334c0 34.133333 22.755556 56.888889 56.888889 56.888889zM199.111111 384h284.444445c17.066667 0 28.444444-11.377778 28.444444-28.444444s-11.377778-28.444444-28.444444-28.444445h-284.444445c-17.066667 0-28.444444 11.377778-28.444444 28.444445s11.377778 28.444444 28.444444 28.444444z m398.222222 0h56.888889c17.066667 0 28.444444-11.377778 28.444445-28.444444s-11.377778-28.444444-28.444445-28.444445h-56.888889c-17.066667 0-28.444444 11.377778-28.444444 28.444445s11.377778 28.444444 28.444444 28.444444z m-398.222222-170.666667h227.555556c17.066667 0 28.444444-11.377778 28.444444-28.444444s-11.377778-28.444444-28.444444-28.444445h-227.555556c-17.066667 0-28.444444 11.377778-28.444444 28.444445s11.377778 28.444444 28.444444 28.444444z"  horiz-adv-x="1024" />

    
    <glyph glyph-name="mimaguanli" unicode="&#59077;" d="M227.555556 440.888889h568.888888c34.133333 0 56.888889-22.755556 56.888889-56.888889v-341.333333c0-34.133333-22.755556-56.888889-56.888889-56.888889h-568.888888c-34.133333 0-56.888889 22.755556-56.888889 56.888889v341.333333c0 34.133333 22.755556 56.888889 56.888889 56.888889zM483.555556 162.133333c-34.133333 11.377778-56.888889 45.511111-56.888889 79.644445 0 45.511111 39.822222 85.333333 85.333333 85.333333s85.333333-39.822222 85.333333-85.333333c0-39.822222-22.755556-68.266667-56.888889-79.644445v-91.022222c0-17.066667-11.377778-28.444444-28.444444-28.444444s-28.444444 11.377778-28.444444 28.444444v91.022222zM227.555556 554.666667h568.888888v-56.888889h-568.888888zM796.444444 554.666667v113.777777c0 96.711111-73.955556 170.666667-170.666666 170.666667h-227.555556c-96.711111 0-170.666667-73.955556-170.666666-170.666667v-113.777777h568.888888z m-398.222222 341.333333h227.555556c125.155556 0 227.555556-102.4 227.555555-227.555556v-170.666666h-682.666666v170.666666c0 125.155556 102.4 227.555556 227.555555 227.555556zM170.666667 497.777778c-34.133333 0-56.888889-22.755556-56.888889-56.888889v-455.111111c0-34.133333 22.755556-56.888889 56.888889-56.888889h682.666666c34.133333 0 56.888889 22.755556 56.888889 56.888889v455.111111c0 34.133333-22.755556 56.888889-56.888889 56.888889h-682.666666z m0 56.888889h682.666666c62.577778 0 113.777778-51.2 113.777778-113.777778v-455.111111c0-62.577778-51.2-113.777778-113.777778-113.777778h-682.666666c-62.577778 0-113.777778 51.2-113.777778 113.777778v455.111111c0 62.577778 51.2 113.777778 113.777778 113.777778z"  horiz-adv-x="1024" />

    
    <glyph glyph-name="black" unicode="&#59078;" d="M512 896h73.142857v-1024h-73.142857zM36.571429 420.571429h1024v-73.142858h-1024z"  horiz-adv-x="1097" />

    
    <glyph glyph-name="success" unicode="&#59079;" d="M512-76.8c254.293333 0 460.8 206.506667 460.8 460.8s-206.506667 460.8-460.8 460.8-460.8-206.506667-460.8-460.8 206.506667-460.8 460.8-460.8z m0-51.2c-283.306667 0-512 228.693333-512 512s228.693333 512 512 512 512-228.693333 512-512-228.693333-512-512-512zM274.773333 368.64l-37.546666-37.546667 172.373333-170.666666 377.173333 375.466666-37.546666 37.546667-339.626667-341.333333z"  horiz-adv-x="1024" />

    
    <glyph glyph-name="yanzheng" unicode="&#59080;" d="M512-128c283.306667 0 512 228.693333 512 512s-228.693333 512-512 512-512-228.693333-512-512h68.266667c0 245.76 197.973333 443.733333 443.733333 443.733333s443.733333-197.973333 443.733333-443.733333-197.973333-443.733333-443.733333-443.733333v-68.266667zM512 759.466667c-208.213333 0-375.466667-167.253333-375.466667-375.466667s167.253333-375.466667 375.466667-375.466667 375.466667 167.253333 375.466667 375.466667h-68.266667c0-168.96-138.24-307.2-307.2-307.2s-307.2 138.24-307.2 307.2 138.24 307.2 307.2 307.2v68.266667z"  horiz-adv-x="1024" />

    
    <glyph glyph-name="empty" unicode="&#59081;" d="M547.84 384l220.16 220.16-35.84 35.84-220.16-220.16-220.16 220.16-35.84-35.84 220.16-220.16-220.16-220.16 35.84-35.84 220.16 220.16 220.16-220.16 35.84 35.84-220.16 220.16z m-35.84-512c-281.6 0-512 230.4-512 512s230.4 512 512 512 512-230.4 512-512-230.4-512-512-512z"  horiz-adv-x="1024" />

    
    <glyph glyph-name="kefu" unicode="&#59082;" d="M614.4-15.36c117.76 35.84 204.8 143.36 204.8 271.36v281.6h51.2v-358.4h-10.24c-25.6-112.64-107.52-199.68-215.04-235.52l-30.72 40.96z m256 501.76c87.04 0 153.6-66.56 153.6-153.6s-66.56-153.6-153.6-153.6v51.2c56.32 0 102.4 46.08 102.4 102.4s-46.08 102.4-102.4 102.4v51.2z m0 51.2h-51.2c0 168.96-138.24 307.2-307.2 307.2s-307.2-138.24-307.2-307.2h-51.2c0 199.68 158.72 358.4 358.4 358.4s358.4-158.72 358.4-358.4z m-716.8 0h51.2v-358.4h-51.2v358.4z m0-51.2v-51.2c-56.32 0-102.4-46.08-102.4-102.4s46.08-102.4 102.4-102.4v-51.2c-87.04 0-153.6 66.56-153.6 153.6s66.56 153.6 153.6 153.6zM486.4-25.6c-15.36 0-25.6-10.24-25.6-25.6s10.24-25.6 25.6-25.6h102.4c15.36 0 25.6 10.24 25.6 25.6s-10.24 25.6-25.6 25.6h-102.4z m0 51.2h102.4c40.96 0 76.8-35.84 76.8-76.8s-35.84-76.8-76.8-76.8h-102.4c-40.96 0-76.8 35.84-76.8 76.8s35.84 76.8 76.8 76.8z"  horiz-adv-x="1024" />

    
    <glyph glyph-name="minus" unicode="&#59246;" d="M975.808 797.312h-88c-1.216 0-2.944 0.576-4.16 0.576-1.792 0-2.944-0.64-4.736-0.64H575.04V849.28C575.04 874.88 552.448 896 525.696 896c-4.16 0-8.32-0.576-11.904-0.576-4.16 0-8.32 0.576-13.12 0.576-26.752 0-48.768-21.12-48.768-46.72v-51.968H155.776a35.968 35.968 0 0 1-11.264 1.728 35.968 35.968 0 0 1-11.328-1.728H45.76c-26.752 0-45.76-10.24-45.76-36.48 0-25.728 18.432-39.936 45.76-39.936h56.512l0.64-758.784c2.368-49.6 40.96-89.6 93.888-89.6h48.768V-128l536.96 0.576h48.768c54.144 0 92.16 41.6 92.16 93.568L922.88 721.408h52.352c26.752 0 48.768 14.272 48.768 39.936 0.64 25.664-21.44 35.968-48.192 35.968z m-134.4-753.6c0.64-61.632-11.84-84.48-55.296-91.264l-554.816-0.64c-27.328 5.76-40.384 18.88-45.76 47.36V720.384l655.872 0.576 0.64-768.448-0.64 91.264zM390.656 640.448a40.32 40.32 0 0 1-40.96-39.36v-531.136a40.32 40.32 0 0 1 40.96-39.36 40.32 40.32 0 0 1 41.088 39.36V601.088a40.32 40.32 0 0 1-41.088 39.36z m246.208 0a40.32 40.32 0 0 1-41.024-39.36v-531.136a40.32 40.32 0 0 1 41.024-39.36 40.32 40.32 0 0 1 41.024 39.36V601.088a40.32 40.32 0 0 1-40.96 39.36z"  horiz-adv-x="1024" />

    
    <glyph glyph-name="delete" unicode="&#59247;" d="M512 464.384L144.384 832 64 751.616 431.616 384 64 16.384 144.384-64 512 303.616 879.616-64 960 16.384 592.384 384 960 751.616 879.616 832 512 464.384z"  horiz-adv-x="1024" />

    
    <glyph glyph-name="success1" unicode="&#59248;" d="M512-128C229.220174-128 0 101.220174 0 384S229.220174 896 512 896s512-229.220174 512-512-229.220174-512-512-512zM238.34713 412.182261l-31.476869-31.47687 230.310956-230.310956 395.954087 395.954087-31.476869 31.476869-364.477218-364.477217-198.834087 198.834087z"  horiz-adv-x="1024" />

    


  </font>
</defs>
</svg>
