<?xml version="1.0" encoding="UTF-8"?>
<svg width="26px" height="26px" viewBox="0 0 26 26" version="1.1" xmlns="http://www.w3.org/2000/svg" xmlns:xlink="http://www.w3.org/1999/xlink">
    <!-- Generator: Sketch 44.1 (41455) - http://www.bohemiancoding.com/sketch -->
    <title>icon/mine</title>
    <desc>Created with Sketch.</desc>
    <defs>
        <linearGradient x1="1.3930963%" y1="98.6263109%" x2="98.6263109%" y2="1.3930963%" id="linearGradient-1">
            <stop stop-color="#F9D423" offset="0%"></stop>
            <stop stop-color="#FF4E50" offset="100%"></stop>
        </linearGradient>
    </defs>
    <g id="首页" stroke="none" stroke-width="1" fill="none" fill-rule="evenodd">
        <g transform="translate(-316.000000, -214.000000)" id="tag-bar" fill="url(#linearGradient-1)">
            <g transform="translate(0.000000, 194.000000)">
                <g id="icon/mine" transform="translate(316.000000, 20.000000)">
                    <g id="Combined-Shape">
                        <path d="M13,0 L13,0 C20.1797017,-1.31888981e-15 26,5.82029825 26,13 L26,13 C26,20.1797017 20.1797017,26 13,26 C5.82029825,26 8.79259876e-16,20.1797017 0,13 L0,13 L0,13 C-8.79259876e-16,5.82029825 5.82029825,1.31888981e-15 13,0 L13,0 Z M17.9087959,10.6189636 L14.9951942,10.5876322 L13.9809982,7.74448892 C13.8210544,7.29686187 13.4076886,7 12.9461558,7 C12.9404193,7 12.9346828,7 12.9295272,7 C12.4611203,7.00709013 12.0483354,7.31873143 11.8998404,7.77701865 L10.9693438,10.6514933 L8.05746064,10.7744972 C7.5913289,10.7946192 7.18771758,11.1145239 7.04955787,11.5745837 C6.91137395,12.0340443 7.06846164,12.5337239 7.44227713,12.8216981 L9.7883057,14.6311799 L8.99826833,17.5577072 C8.8732759,18.0224854 9.04527363,18.5180457 9.42881935,18.7947856 C9.61860744,18.9313955 9.83990987,19 10.0606314,19 C10.2859518,19 10.5106913,18.9290238 10.7027304,18.7876955 L13.0762796,17.0343855 L15.4997144,18.7114266 C15.6860413,18.8403222 15.8998887,18.9047825 16.1137361,18.9047825 C16.3459064,18.9047825 16.5781009,18.8290879 16.7730446,18.6788969 C17.1479977,18.3903485 17.3056421,17.8894705 17.1669257,17.4294108 L16.2914704,14.5294965 L18.5841763,12.6460676 C18.9493749,12.3462598 19.0915526,11.8418368 18.9402014,11.3865205 C18.7882692,10.9317783 18.3754843,10.6242812 17.9087959,10.6189636 Z" fill-rule="nonzero"></path>
                    </g>
                </g>
            </g>
        </g>
    </g>
</svg>