<?xml version="1.0" encoding="UTF-8"?>
<svg width="26px" height="25px" viewBox="0 0 26 25" version="1.1" xmlns="http://www.w3.org/2000/svg" xmlns:xlink="http://www.w3.org/1999/xlink">
    <!-- Generator: Sketch 44.1 (41455) - http://www.bohemiancoding.com/sketch -->
    <title>icon/purse</title>
    <desc>Created with Sketch.</desc>
    <defs>
        <linearGradient x1="1.3930963%" y1="98.6263109%" x2="98.6263109%" y2="1.3930963%" id="linearGradient-1">
            <stop stop-color="#F9D423" offset="0%"></stop>
            <stop stop-color="#FF4E50" offset="100%"></stop>
        </linearGradient>
    </defs>
    <g id="首页" stroke="none" stroke-width="1" fill="none" fill-rule="evenodd">
        <g transform="translate(-222.000000, -215.000000)" id="tag-bar" fill="url(#linearGradient-1)">
            <g transform="translate(0.000000, 194.000000)">
                <g id="icon/purse" transform="translate(222.000000, 21.000000)">
                    <g id="Combined-Shape">
                        <path d="M22.2914355,0 C24.3405081,0 26,1.65955216 26,3.70631918 L26,16.6900717 C26,18.736105 24.341242,20.3984873 22.2930081,20.3984873 L18.4174355,20.3984873 C17.7586457,20.397635 17.1487928,20.7460804 16.8150806,21.3140083 L14.6029839,24.0824874 C14.244121,24.6940227 13.6228468,25 13.0010484,25 C12.37925,25 11.7572419,24.6943372 11.3985887,24.0822777 L9.19005646,21.3147421 C8.85649101,20.7464675 8.24650659,20.3977133 7.58749193,20.3984873 L3.71737096,20.3984873 C1.66337097,20.3984873 0,18.7318072 0,16.679799 L0,3.71512428 C0,1.66343059 1.66337097,0 3.71737096,0 L22.2914355,0 Z M16.0098012,6.00002702 C15.7446414,6.00002702 15.4903418,6.10534522 15.3028455,6.2928128 C15.1153492,6.48028038 15.0100149,6.73454099 15.0100149,6.99966018 L15.0100149,12.0049419 L10.7991635,6.39931553 C10.5407886,6.0554082 10.091355,5.91531109 9.6832867,6.05147526 C9.27521844,6.18763943 9.00001598,6.56953302 9,6.99966018 L9,14.9967253 C9,15.5488074 9.44761958,15.9963584 9.99978631,15.9963584 C10.551953,15.9963584 10.9995726,15.5488074 10.9995726,14.9967253 L10.9995726,9.995171 L15.210424,15.6006844 C15.4687989,15.9445918 15.9182325,16.0846889 16.3263008,15.9485247 C16.7343691,15.8123606 17.0095715,15.430467 17.0095875,15.0003398 L17.0095875,6.99966018 C17.0095875,6.73454098 16.9042532,6.48028037 16.7167569,6.29281279 C16.5292606,6.1053452 16.274961,6.00002702 16.0098012,6.00002702 L16.0098012,6.00002702 Z" fill-rule="nonzero"></path>
                    </g>
                </g>
            </g>
        </g>
    </g>
</svg>