<?xml version="1.0" encoding="UTF-8"?>
<svg width="26px" height="26px" viewBox="0 0 26 26" version="1.1" xmlns="http://www.w3.org/2000/svg" xmlns:xlink="http://www.w3.org/1999/xlink">
    <!-- Generator: Sketch 44.1 (41455) - http://www.bohemiancoding.com/sketch -->
    <title>icon/theme</title>
    <desc>Created with Sketch.</desc>
    <defs>
        <linearGradient x1="1.3930963%" y1="98.6263109%" x2="98.6263109%" y2="1.3930963%" id="linearGradient-1">
            <stop stop-color="#F9D423" offset="0%"></stop>
            <stop stop-color="#FF4E50" offset="100%"></stop>
        </linearGradient>
    </defs>
    <g id="首页" stroke="none" stroke-width="1" fill="none" fill-rule="evenodd">
        <g transform="translate(-128.000000, -214.000000)" id="tag-bar" fill="url(#linearGradient-1)">
            <g transform="translate(0.000000, 194.000000)">
                <g id="icon/theme" transform="translate(128.000000, 20.000000)">
                    <g id="Combined-Shape">
                        <path d="M13,0 L13,0 C20.1797017,-1.31888981e-15 26,5.82029825 26,13 L26,13 C26,20.1797017 20.1797017,26 13,26 C5.82029825,26 8.79259876e-16,20.1797017 0,13 L0,13 L0,13 C-8.79259876e-16,5.82029825 5.82029825,1.31888981e-15 13,0 L13,0 Z M7.48303842,7.88537754 C7.13516164,7.98149329 6.92878178,8.35010436 7.02266249,8.71219851 L9.55666921,18.4987449 C9.65067865,18.8594652 10.0101739,19.0734667 10.3571656,18.9767697 C10.7066838,18.8803369 10.9118084,18.5094009 10.8185231,18.1486806 L8.28366353,8.36178198 C8.189638,8.00060372 7.83091521,7.78880383 7.48303842,7.88537754 Z M8.87488349,8.65995747 C9.00365165,9.12940466 10.4999338,14.6785794 10.4999338,14.6785442 C11.0405122,13.0076588 12.3685847,12.2576846 14.1737527,12.7441639 C16.1250039,13.2699208 17.701054,12.0353696 18.2036875,11.1338682 C18.7069647,10.2324726 19,8.53194403 19,8.53194403 C17.8269739,10.6326819 16.0577232,9.37764646 13.3386585,7.62142468 C10.6249364,5.86463926 9.04444486,8.359686 8.87488349,8.65995747 Z"></path>
                    </g>
                </g>
            </g>
        </g>
    </g>
</svg>